<?xml version="1.0" encoding="UTF-8"?>
<svg width="64px" height="64px" viewBox="0 0 64 64" version="1.1" xmlns="http://www.w3.org/2000/svg" xmlns:xlink="http://www.w3.org/1999/xlink">
    <title>iconfont</title>
    <g id="页面-1" stroke="none" stroke-width="1" fill="none" fill-rule="evenodd">
        <g id="PC" transform="translate(-1149.000000, -1733.000000)" fill-rule="nonzero">
            <g id="iconfont" transform="translate(1149.000000, 1733.000000)">
                <rect id="矩形" fill="#000000" opacity="0" x="0" y="0" width="64" height="64"></rect>
                <path d="M8.10648919,0 L56,0 C60.418278,-8.11624501e-16 64,3.581722 64,8 L64,55.8935108 C64,60.3117888 60.418278,63.8935108 56,63.8935108 L8.10648919,63.8935108 C3.68821119,63.8935108 0.106489188,60.3117888 0.106489188,55.8935108 L0.106489188,8 C0.106489188,3.581722 3.68821119,8.11624501e-16 8.10648919,0 Z" id="路径" fill="#E94618"></path>
                <path d="M31.3624493,54.1056639 C28.9388619,52.6382429 29.4554409,50.0796272 27.89399,48.4691914 C25.0217637,45.5074077 19.9880199,45.3555541 17.0547754,41.9657904 C7.21996675,30.6005192 16.6635341,9.35273212 35.2645324,12.4831947 C46.1047055,14.3074609 54.3631548,29.4947354 46.970782,40.2315075 C43.7912279,44.8500499 37.6765124,45.2157338 33.9637671,50.2035807 C32.8758736,51.2831681 33.4267421,54.0023694 31.3624493,54.1056639 L31.3624493,54.1056639 Z M15.75401,29.3922929 C15.3176173,37.6397737 27.0267421,37.2221232 27.0267421,29.8259168 C27.0267421,26.0605657 23.6453911,23.0381897 19.2225757,24.6230682 C16.1113877,25.7377971 15.8827554,26.9598669 15.75401,29.3922929 L15.75401,29.3922929 Z M39.6001331,35.4622829 C49.5345092,38.2481464 49.7853977,21.0537637 39.6001331,24.6230682 C34.781604,26.3116672 35.3432279,34.2686456 39.6001331,35.4622829 Z M29.6281664,40.6652379 C31.2161331,41.0213377 31.6904359,36.3838402 30.0616839,36.3293178 C29.1572713,37.2247854 27.0238669,40.0308819 29.6281664,40.6652379 Z M33.5300366,40.6652379 L34.3974975,40.6652379 C35.5171248,38.8894243 34.0222296,36.5764792 32.2295907,36.3293178 C32.3746289,38.0630682 31.6722263,40.6441531 33.5300366,40.6652379 Z" id="形状" fill="#FFFFFF"></path>
            </g>
        </g>
    </g>
</svg>