<svg width="64px" height="64px" viewBox="0 0 64 64" version="1.1" xmlns="http://www.w3.org/2000/svg" xmlns:xlink="http://www.w3.org/1999/xlink">
  <g id="页面-3" stroke="none" stroke-width="1" fill="none" fill-rule="evenodd">
    <g id="画板" transform="translate(-2435.000000, -381.000000)">
      <g id="编组" transform="translate(2435.000000, 381.000000)">
        <g id="面性" transform="translate(4.000000, 4.000000)">
          <path d="M51.1476,0.497534959 L51.339734,0.501651957 C54.8300054,0.651967126 56.5353,4.88303399 54.0218,7.37415285 L54.0218,7.37415285 L33.3482,27.861535 L6.937,1.68526396 C6.17,0.925093612 5.24003571,0.554947713 4.31300306,0.503726273 L4.0992,0.497534959 L51.1476,0.497534959 Z" id="Combined-Shape" fill="#96BEFF"></path>
          <path d="M21.9779,30.428722 C24.7779,33.2037897 24.7779,37.7035621 21.9779,40.4786298 C19.1779,43.2536976 14.6391,43.2536976 11.8391,40.4786298 C9.0391,37.7035621 9.0391,33.2037897 11.8391,30.428722 C14.6391,27.6536542 19.1779,27.6536542 21.9779,30.428722 M4.088,0.497534959 C2.0006,0.501697561 0,2.10846179 0,4.533871 L0,4.533871 L0,51.1994103 C0,53.4222396 1.8214,55.2260336 4.0628,55.2260336 L4.0628,55.2260336 L51.1476,55.2260336 C53.592,55.2260336 55.2132,53.2474103 55.2202,51.1799848 L55.2202,51.1799848 L55.2202,51.1688846 C55.2202,50.1795729 54.8492,49.1708358 54.0218,48.3508033 L54.0218,48.3508033 L6.937,1.68526396 C6.111,0.86661897 5.096,0.500310027 4.0992,0.497534959 L4.0992,0.497534959 L4.088,0.497534959 Z" id="Clip-5" fill="#2663FC"></path>
        </g>
        <rect id="矩形" fill="#000000" fill-rule="nonzero" opacity="0" x="0" y="0" width="64" height="64"></rect>
      </g>
    </g>
  </g>
</svg>
