<?xml version="1.0" encoding="UTF-8"?>
<svg width="64px" height="64px" viewBox="0 0 64 64" version="1.1" xmlns="http://www.w3.org/2000/svg" xmlns:xlink="http://www.w3.org/1999/xlink">
    <title>AxureRP</title>
    <g id="页面-1" stroke="none" stroke-width="1" fill="none" fill-rule="evenodd">
        <g id="PC" transform="translate(-535.000000, -1737.000000)" fill-rule="nonzero">
            <g id="AxureRP" transform="translate(535.000000, 1737.000000)">
                <rect id="矩形" fill="#000000" opacity="0" x="0" y="0" width="64" height="64"></rect>
                <path d="M18.8867188,58.2675781 L18.8867188,57.453125 C18.8925781,50.5859375 18.8925781,43.71875 18.8984375,36.8515625 C18.9101562,26.7675781 18.9277344,16.6835937 18.9394531,6.59960937 C18.9394531,5.76171875 18.9394531,5.76171875 19.7890625,5.76171875 C31.4082031,5.75585937 43.0273438,5.76757812 54.6464844,5.72654512 C56.6914063,5.72070312 58.2851563,7.19726562 58.279313,9.37109375 C58.2207031,24.5410156 58.2441406,39.7050781 58.2441406,54.875 C58.2441406,56.9433594 56.9316406,58.2617187 54.8691406,58.2675781 C43.1269531,58.2734375 31.3789062,58.2734375 19.6367188,58.2734375 C19.4257812,58.2675781 19.2207031,58.2675781 18.8867188,58.2675781 Z M38.1875,53.8320312 C36.5117188,51.0371094 34.8945313,48.3476562 33.2773438,45.6523437 C33.7167969,45.4941406 34.1152344,45.3769531 34.4960938,45.2128906 C38.2578125,43.6074219 38.0410156,39.0839844 36.2714844,37.2265625 C35.1113281,36.0136719 33.6523438,35.4453125 32.046875,35.3632812 C29.6269531,35.2402344 27.1953125,35.2871094 24.7695313,35.2285156 C24.2246094,35.2167969 24.125,35.421875 24.125,35.9140625 C24.1425781,41.6621094 24.1367188,47.4101562 24.1367188,53.1582031 C24.1367188,53.3574219 24.1601563,53.5625 24.171875,53.7792969 L27.5410156,53.7792969 L27.5410156,45.9863281 C28.1445313,45.9863281 28.6835938,46.0214844 29.2167969,45.9746094 C29.703125,45.9277344 29.9550781,46.1210937 30.1777344,46.5429687 C31.4023438,48.828125 32.6503906,51.0957031 33.9042969,53.3632812 C34.0039063,53.5449219 34.1972656,53.796875 34.3496094,53.8027344 C35.5800781,53.8496094 36.8164063,53.8320312 38.1875,53.8320312 Z M42.7226563,46.203125 C43.7070313,46.203125 44.5976563,46.2265625 45.4882813,46.1972656 C47.0527344,46.1445312 48.5703125,45.9101562 49.9882813,45.1601562 C53.3046875,43.4023438 53.1699219,38.0292969 50.2988281,36.3417969 C49.2910156,35.75 48.2070313,35.3984375 47.0585938,35.3574219 C44.7382813,35.2753906 42.4121094,35.2929688 40.0917969,35.234375 C39.5058594,35.2167969 39.3125,35.3691406 39.3125,35.984375 C39.3359375,41.6914062 39.3300781,47.3925781 39.3300781,53.0996094 C39.3300781,53.3222656 39.3476563,53.5449219 39.359375,53.7910156 L42.7167969,53.7910156 C42.7226563,51.2597656 42.7226563,48.7753906 42.7226563,46.203125 Z M15.4648438,5.74414062 L15.4648438,58.2441406 C15.2539063,58.2558594 15.0546875,58.2792969 14.8554688,58.2792969 C12.9277344,58.2792969 10.9941406,58.2851562 9.06640625,58.2792969 C7.05078125,58.2734375 5.72070313,56.9375 5.72070313,54.9101562 C5.7265625,39.6582031 5.73242188,24.40625 5.74414063,9.1484375 C5.74414063,7.109375 7.10351563,5.75585938 9.13671875,5.75 C11.0234375,5.74414062 12.9160156,5.74414062 14.8027344,5.74414062 L15.4648438,5.74414062 Z" id="形状" fill="#AD35CC"></path>
                <path d="M27.5410156,43.1210938 L27.5410156,38.1054688 C29.2226562,38.1992188 30.8984375,37.8769531 32.5273438,38.4335938 C33.5527344,38.7851562 34.0742188,39.5292969 34.0917969,40.5195312 C34.109375,41.65625 33.6289062,42.4179688 32.5800781,42.8398438 C32.2578125,42.96875 31.90625,43.0976562 31.5664062,43.109375 C30.2480469,43.1386719 28.9296875,43.1210938 27.5410156,43.1210938 Z M42.7519531,43.4375 L42.7519531,38.0585938 C44.2050781,38.140625 45.6347656,38.1289062 47.0292969,38.328125 C48.3300781,38.515625 49.0039062,39.3945312 49.0273438,40.5664062 C49.0566406,41.8554688 48.4648438,42.7929688 47.1464844,43.0390625 C45.7285156,43.296875 44.2578125,43.3085938 42.7519531,43.4375 Z" id="形状" fill="#AD35CC"></path>
            </g>
        </g>
    </g>
</svg>