<?xml version="1.0" encoding="UTF-8"?>
<svg width="244px" height="19px" viewBox="0 0 244 19" version="1.1" xmlns="http://www.w3.org/2000/svg" xmlns:xlink="http://www.w3.org/1999/xlink">
    <title>编组备份 2</title>
    <defs>
        <polygon id="path-1" points="0 18.5837037 243.643077 18.5837037 243.643077 0 0 0"></polygon>
    </defs>
    <g id="页面-1" stroke="none" stroke-width="1" fill="none" fill-rule="evenodd">
        <g id="PC" transform="translate(-116.000000, -2165.000000)">
            <g id="编组备份-2" transform="translate(116.000000, 2165.000000)">
                <polygon id="Fill-1" fill="#0058FF" points="155.15159 0.468421652 155.15159 3.56198291 157.291077 3.56198291 157.291077 14.9470541 155.15159 14.9470541 155.15159 18.0390199 162.552843 18.0390199 162.552843 14.9470541 160.384638 14.9470541 160.384638 3.56198291 162.653356 3.56198291 162.653356 0.468421652"></polygon>
                <polygon id="Fill-2" fill="#0058FF" points="200.704 11.4702678 185.756308 0.507988604 185.756308 18.0977322 188.848274 18.0977322 188.848274 6.94719088 203.795966 17.9110655 203.795966 2.35710541 200.704 0.407475783"></polygon>
                <g id="编组">
                    <path d="M147.693538,7.70821652 L140.206131,7.70821652 C139.095704,7.70821652 138.194279,6.80679202 138.194279,5.69636467 C138.194279,4.58753276 139.095704,3.68610826 140.206131,3.68610826 L150.475989,3.68610826 L152.392114,0.592547009 L140.206131,0.592547009 C137.391772,0.592547009 135.100718,2.88360114 135.100718,5.69636467 C135.100718,8.51072365 137.391772,10.7985869 140.206131,10.7985869 L147.693538,10.7985869 C148.80237,10.7985869 149.70539,11.7016068 149.70539,12.8104387 C149.70539,13.9208661 148.80237,14.8222906 147.693538,14.8222906 L137.45559,14.8222906 L135.537869,17.9142564 L147.693538,17.9142564 C150.509493,17.9142564 152.797356,15.6247977 152.797356,12.8104387 C152.797356,9.99767521 150.509493,7.70821652 147.693538,7.70821652" id="Fill-3" fill="#0058FF"></path>
                    <path d="M104.788125,18.0396581 C109.631886,18.0396581 113.574222,14.0973219 113.574222,9.25356125 C113.574222,4.66985755 110.041915,0.89982906 105.557128,0.507350427 L105.557128,0.467464387 L104.791316,0.467464387 L104.788125,0.467464387 L96.8077265,0.467464387 L94.103453,0.467464387 L92.1618006,3.60091168 L104.871088,3.52592593 C107.993368,3.57059829 110.520547,6.12011396 110.520547,9.25356125 C110.520547,12.4157265 107.948695,14.9859829 104.788125,14.9859829 L98.269151,14.9859829 L98.269151,6.42165242 L95.2154758,6.42165242 L95.2154758,18.0396581 L95.6781538,18.0396581 L98.269151,18.0396581 L104.788125,18.0396581 Z" id="Fill-5" fill="#0058FF"></path>
                    <mask id="mask-2" fill="white">
                        <use xlink:href="#path-1"></use>
                    </mask>
                    <g id="Clip-8"></g>
                    <polygon id="Fill-7" fill="#0058FF" mask="url(#mask-2)" points="115.845014 18.0492308 133.860741 18.0492308 133.860741 14.8360114 115.845014 14.8360114"></polygon>
                    <polygon id="Fill-9" fill="#0058FF" mask="url(#mask-2)" points="115.845014 3.67111111 133.860741 3.67111111 133.860741 0.457891738 115.845014 0.457891738"></polygon>
                    <polygon id="Fill-10" fill="#0058FF" mask="url(#mask-2)" points="129.57347 10.7588604 131.093926 7.54564103 115.846291 7.54564103 115.846291 10.7588604"></polygon>
                    <path d="M182.165447,18.0364672 L182.165447,7.68045584 L174.923738,7.68045584 L172.98049,10.8123077 L179.032,10.8123077 L179.032,14.9046154 L172.674165,14.9046154 C169.563054,14.9046154 167.032684,12.3646724 167.032684,9.24558405 C167.032684,6.13447293 169.563054,3.60410256 172.674165,3.60410256 L182.165447,3.60410256 L182.165447,0.470655271 L172.674165,0.470655271 C167.835191,0.470655271 163.899236,4.40660969 163.899236,9.24558405 C163.899236,14.0925356 167.835191,18.0364672 172.674165,18.0364672 L182.165447,18.0364672 Z" id="Fill-11" fill="#0058FF" mask="url(#mask-2)"></path>
                    <polygon id="Fill-12" fill="#FFFFFF" mask="url(#mask-2)" points="52.9517493 18.1361823 47.5288433 18.1361823 47.5288433 0.445925926 52.9517493 0.445925926 52.9517493 3.30017094 50.3830883 3.30017094 50.3830883 15.2835328 52.9517493 15.2835328"></polygon>
                    <polygon id="Fill-13" fill="#FFFFFF" mask="url(#mask-2)" points="84.1158291 18.1361823 78.6945185 18.1361823 78.6945185 15.2835328 81.261584 15.2835328 81.261584 3.30017094 78.6945185 3.30017094 78.6945185 0.445925926 84.1158291 0.445925926"></polygon>
                    <polygon id="Fill-14" fill="#FFFFFF" mask="url(#mask-2)" points="23.7641026 18.1162393 44.2017094 18.1162393 44.2017094 14.8551567 23.7641026 14.8551567"></polygon>
                    <polygon id="Fill-15" fill="#FFFFFF" mask="url(#mask-2)" points="23.7641026 3.72695157 44.2017094 3.72695157 44.2017094 0.465868946 23.7641026 0.465868946"></polygon>
                    <polygon id="Fill-16" fill="#FFFFFF" mask="url(#mask-2)" points="23.7649003 7.65987464 23.7649003 10.9225527 38.5626211 10.9225527 40.1054131 7.65987464"></polygon>
                    <path d="M3.26251852,3.7274302 L14.8438291,3.7274302 L14.8470199,3.7274302 C16.5461652,3.7274302 17.1763647,4.90805698 17.1763647,5.61483761 C17.1763647,6.04879772 17.0072479,7.47512251 14.8390427,7.49905413 L4.51813105,7.49905413 L15.7005812,18.1167179 L20.4390427,18.1167179 L12.6915783,10.7617322 L14.832661,10.7617322 L14.8422336,10.7617322 C15.1437721,10.7617322 17.4731168,10.7090826 19.0605812,9.12640456 C19.9620057,8.22817094 20.4390427,7.01563533 20.4390427,5.61483761 C20.4390427,4.21403989 19.9620057,2.99831339 19.0605812,2.10007977 C17.4731168,0.518997151 15.1437721,0.466347578 14.8470199,0.466347578 L14.8390427,0.466347578 L-0.000159544159,0.466347578 L-0.000159544159,18.1167179 L3.26251852,18.1167179 L3.26251852,3.7274302 Z" id="Fill-17" fill="#FFFFFF" mask="url(#mask-2)"></path>
                    <polygon id="Fill-18" fill="#FFFFFF" mask="url(#mask-2)" points="68.0727066 9.29121368 76.4551567 0.466826211 71.9576068 0.466826211 55.1879202 18.1156011 59.6870655 18.1156011 65.8231339 11.658849 71.9576068 18.1156011 76.4567521 18.1156011"></polygon>
                    <polygon id="Fill-19" fill="#FFFFFF" mask="url(#mask-2)" points="64.176 5.19045014 59.6880228 0.466347578 55.1888775 0.466347578 61.9264274 7.55649003"></polygon>
                    <path d="M241.869903,0.525538462 L212.545687,0.525538462 C211.856456,0.525538462 211.298051,1.08394302 211.298051,1.77157835 L211.298051,16.8102108 C211.298051,17.4994416 211.856456,18.0578462 212.545687,18.0578462 L241.869903,18.0578462 C242.559134,18.0578462 243.117538,17.4994416 243.117538,16.8102108 L243.117538,1.77157835 C243.117538,1.08394302 242.559134,0.525538462 241.869903,0.525538462 Z" id="Stroke-20" stroke="#0058FF" stroke-width="1.05139601" mask="url(#mask-2)"></path>
                    <path d="M216.472068,9.29121368 C216.472068,7.44528775 217.974974,5.94238177 219.822496,5.94238177 L221.515259,5.94238177 C223.361185,5.94238177 224.864091,7.44528775 224.864091,9.29121368 C224.864091,11.138735 223.361185,12.641641 221.515259,12.641641 L219.822496,12.641641 C217.974974,12.641641 216.472068,11.138735 216.472068,9.29121368 L216.472068,9.29121368 Z M221.515259,14.4748034 C224.372695,14.4748034 226.697254,12.150245 226.697254,9.29121368 C226.697254,6.43377778 224.372695,4.10921937 221.515259,4.10921937 L219.822496,4.10921937 C216.96506,4.10921937 214.638906,6.43377778 214.638906,9.29121368 C214.638906,12.150245 216.96506,14.4748034 219.822496,14.4748034 L221.515259,14.4748034 Z" id="Fill-21" fill="#0058FF" mask="url(#mask-2)"></path>
                    <path d="M235.916513,8.37495157 L231.473208,8.37495157 C230.815886,8.37495157 230.279818,7.83888319 230.279818,7.17996581 C230.279818,6.52264387 230.815886,5.9865755 231.473208,5.9865755 L237.567795,5.9865755 L238.705345,4.15341311 L231.473208,4.15341311 C229.802781,4.15341311 228.443464,5.5111339 228.443464,7.17996581 C228.443464,8.85039316 229.802781,10.208114 231.473208,10.208114 L235.916513,10.208114 C236.573835,10.208114 237.109903,10.7441823 237.109903,11.4015043 C237.109903,12.0620171 236.573835,12.59649 235.916513,12.59649 L229.839476,12.59649 L228.703521,14.4312479 L235.916513,14.4312479 C237.58694,14.4312479 238.944661,13.0719316 238.944661,11.4015043 C238.944661,9.73426781 237.58694,8.37495157 235.916513,8.37495157" id="Fill-22" fill="#0058FF" mask="url(#mask-2)"></path>
                </g>
            </g>
        </g>
    </g>
</svg>