<?xml version="1.0" encoding="UTF-8"?>
<svg width="293px" height="23px" viewBox="0 0 293 23" version="1.1" xmlns="http://www.w3.org/2000/svg" xmlns:xlink="http://www.w3.org/1999/xlink">
    <title>编组备份</title>
    <defs>
        <polygon id="path-1" points="0 22.3004444 292.371692 22.3004444 292.371692 0 0 0"></polygon>
    </defs>
    <g id="页面-1" stroke="none" stroke-width="1" fill="none" fill-rule="evenodd">
        <g id="Phone" transform="translate(-41.000000, -252.000000)">
            <g id="编组备份" transform="translate(41.000000, 252.000000)">
                <polygon id="Fill-1" fill="#FFFFFF" points="186.181908 0.562105983 186.181908 4.27437949 188.749292 4.27437949 188.749292 17.936465 186.181908 17.936465 186.181908 21.6468239 195.063412 21.6468239 195.063412 17.936465 192.461566 17.936465 192.461566 4.27437949 195.184027 4.27437949 195.184027 0.562105983"></polygon>
                <polygon id="Fill-2" fill="#FFFFFF" points="240.8448 13.7643214 222.907569 0.609586325 222.907569 21.7172786 226.617928 21.7172786 226.617928 8.33662906 244.555159 21.4932786 244.555159 2.8285265 240.8448 0.48897094"></polygon>
                <g id="编组">
                    <path d="M177.232246,9.24985983 L168.247357,9.24985983 C166.914844,9.24985983 165.833135,8.16815043 165.833135,6.83563761 C165.833135,5.50503932 166.914844,4.42332991 168.247357,4.42332991 L180.571186,4.42332991 L182.870537,0.71105641 L168.247357,0.71105641 C164.870126,0.71105641 162.120862,3.46032137 162.120862,6.83563761 C162.120862,10.2128684 164.870126,12.9583043 168.247357,12.9583043 L177.232246,12.9583043 C178.562844,12.9583043 179.646468,14.0419282 179.646468,15.3725265 C179.646468,16.7050393 178.562844,17.7867487 177.232246,17.7867487 L164.946708,17.7867487 L162.645443,21.4971077 L177.232246,21.4971077 C180.611391,21.4971077 183.356827,18.7497573 183.356827,15.3725265 C183.356827,11.9972103 180.611391,9.24985983 177.232246,9.24985983" id="Fill-3" fill="#FFFFFF"></path>
                    <path d="M125.74575,21.6475897 C131.558263,21.6475897 136.289067,16.9167863 136.289067,11.1042735 C136.289067,5.60382906 132.050297,1.07979487 126.668554,0.608820513 L126.668554,0.560957265 L125.749579,0.560957265 L125.74575,0.560957265 L116.169272,0.560957265 L112.924144,0.560957265 L110.594161,4.32109402 L125.845306,4.23111111 C129.592041,4.28471795 132.624656,7.34413675 132.624656,11.1042735 C132.624656,14.8988718 129.538434,17.9831795 125.74575,17.9831795 L117.922981,17.9831795 L117.922981,7.70598291 L114.258571,7.70598291 L114.258571,21.6475897 L114.813785,21.6475897 L117.922981,21.6475897 L125.74575,21.6475897 Z" id="Fill-5" fill="#FFFFFF"></path>
                    <mask id="mask-2" fill="white">
                        <use xlink:href="#path-1"></use>
                    </mask>
                    <g id="Clip-8"></g>
                    <polygon id="Fill-7" fill="#FFFFFF" mask="url(#mask-2)" points="139.014017 21.6590769 160.632889 21.6590769 160.632889 17.8032137 139.014017 17.8032137"></polygon>
                    <polygon id="Fill-9" fill="#FFFFFF" mask="url(#mask-2)" points="139.014017 4.40533333 160.632889 4.40533333 160.632889 0.549470085 139.014017 0.549470085"></polygon>
                    <polygon id="Fill-10" fill="#FFFFFF" mask="url(#mask-2)" points="155.488164 12.9106325 157.312711 9.05476923 139.015549 9.05476923 139.015549 12.9106325"></polygon>
                    <path d="M218.598537,21.6437607 L218.598537,9.21654701 L209.908485,9.21654701 L207.576588,12.9747692 L214.8384,12.9747692 L214.8384,17.8855385 L207.208998,17.8855385 C203.475665,17.8855385 200.439221,14.8376068 200.439221,11.0947009 C200.439221,7.36136752 203.475665,4.32492308 207.208998,4.32492308 L218.598537,4.32492308 L218.598537,0.564786325 L207.208998,0.564786325 C201.402229,0.564786325 196.679084,5.28793162 196.679084,11.0947009 C196.679084,16.9110427 201.402229,21.6437607 207.208998,21.6437607 L218.598537,21.6437607 Z" id="Fill-11" fill="#FFFFFF" mask="url(#mask-2)"></path>
                    <polygon id="Fill-12" fill="#FFFFFF" mask="url(#mask-2)" points="63.5420991 21.7634188 57.034612 21.7634188 57.034612 0.535111111 63.5420991 0.535111111 63.5420991 3.96020513 60.459706 3.96020513 60.459706 18.3402393 63.5420991 18.3402393"></polygon>
                    <polygon id="Fill-13" fill="#FFFFFF" mask="url(#mask-2)" points="100.938995 21.7634188 94.4334222 21.7634188 94.4334222 18.3402393 97.5139009 18.3402393 97.5139009 3.96020513 94.4334222 3.96020513 94.4334222 0.535111111 100.938995 0.535111111"></polygon>
                    <polygon id="Fill-14" fill="#FFFFFF" mask="url(#mask-2)" points="28.5169231 21.7394872 53.0420513 21.7394872 53.0420513 17.826188 28.5169231 17.826188"></polygon>
                    <polygon id="Fill-15" fill="#FFFFFF" mask="url(#mask-2)" points="28.5169231 4.47234188 53.0420513 4.47234188 53.0420513 0.559042735 28.5169231 0.559042735"></polygon>
                    <polygon id="Fill-16" fill="#FFFFFF" mask="url(#mask-2)" points="28.5178803 9.19184957 28.5178803 13.1070632 46.2751453 13.1070632 48.1264957 9.19184957"></polygon>
                    <path d="M3.91502222,4.47291624 L17.8125949,4.47291624 L17.8164239,4.47291624 C19.8553983,4.47291624 20.6116376,5.88966838 20.6116376,6.73780513 C20.6116376,7.25855726 20.4086974,8.97014701 17.8068513,8.99886496 L5.42175726,8.99886496 L18.8406974,21.7400615 L24.5268513,21.7400615 L15.229894,12.9140786 L17.7991932,12.9140786 L17.8106803,12.9140786 C18.1725265,12.9140786 20.9677402,12.8508991 22.8726974,10.9516855 C23.9544068,9.87380513 24.5268513,8.41876239 24.5268513,6.73780513 C24.5268513,5.05684786 23.9544068,3.59797607 22.8726974,2.52009573 C20.9677402,0.622796581 18.1725265,0.559617094 17.8164239,0.559617094 L17.8068513,0.559617094 L-0.000191452991,0.559617094 L-0.000191452991,21.7400615 L3.91502222,21.7400615 L3.91502222,4.47291624 Z" id="Fill-17" fill="#FFFFFF" mask="url(#mask-2)"></path>
                    <polygon id="Fill-18" fill="#FFFFFF" mask="url(#mask-2)" points="81.6872479 11.1494564 91.746188 0.560191453 86.3491282 0.560191453 66.2255043 21.7387214 71.6244786 21.7387214 78.9877607 13.9906188 86.3491282 21.7387214 91.7481026 21.7387214"></polygon>
                    <polygon id="Fill-19" fill="#FFFFFF" mask="url(#mask-2)" points="77.0112 6.22854017 71.6256274 0.559617094 66.226653 0.559617094 74.3117128 9.06778803"></polygon>
                    <path d="M290.243884,0.630646154 L255.054824,0.630646154 C254.227747,0.630646154 253.557662,1.30073162 253.557662,2.12589402 L253.557662,20.172253 C253.557662,20.9993299 254.227747,21.6694154 255.054824,21.6694154 L290.243884,21.6694154 C291.070961,21.6694154 291.741046,20.9993299 291.741046,20.172253 L291.741046,2.12589402 C291.741046,1.30073162 291.070961,0.630646154 290.243884,0.630646154 Z" id="Stroke-20" stroke="#FFFFFF" stroke-width="1.26167521" mask="url(#mask-2)"></path>
                    <path d="M259.766482,11.1494564 C259.766482,8.9343453 261.569969,7.13085812 263.786995,7.13085812 L265.818311,7.13085812 C268.033422,7.13085812 269.836909,8.9343453 269.836909,11.1494564 C269.836909,13.3664821 268.033422,15.1699692 265.818311,15.1699692 L263.786995,15.1699692 C261.569969,15.1699692 259.766482,13.3664821 259.766482,11.1494564 L259.766482,11.1494564 Z M265.818311,17.3697641 C269.247234,17.3697641 272.036704,14.580294 272.036704,11.1494564 C272.036704,7.72053333 269.247234,4.93106325 265.818311,4.93106325 L263.786995,4.93106325 C260.358072,4.93106325 257.566687,7.72053333 257.566687,11.1494564 C257.566687,14.580294 260.358072,17.3697641 263.786995,17.3697641 L265.818311,17.3697641 Z" id="Fill-21" fill="#FFFFFF" mask="url(#mask-2)"></path>
                    <path d="M283.099815,10.0499419 L277.76785,10.0499419 C276.979063,10.0499419 276.335781,9.40665983 276.335781,8.61595897 C276.335781,7.82717265 276.979063,7.1838906 277.76785,7.1838906 L285.081354,7.1838906 L286.446414,4.98409573 L277.76785,4.98409573 C275.763337,4.98409573 274.132157,6.61336068 274.132157,8.61595897 C274.132157,10.6204718 275.763337,12.2497368 277.76785,12.2497368 L283.099815,12.2497368 C283.888602,12.2497368 284.531884,12.8930188 284.531884,13.6818051 C284.531884,14.4744205 283.888602,15.115788 283.099815,15.115788 L275.807371,15.115788 L274.444226,17.3174974 L283.099815,17.3174974 C285.104328,17.3174974 286.733593,15.6863179 286.733593,13.6818051 C286.733593,11.6811214 285.104328,10.0499419 283.099815,10.0499419" id="Fill-22" fill="#FFFFFF" mask="url(#mask-2)"></path>
                </g>
            </g>
        </g>
    </g>
</svg>